<?xml version="1.0" encoding="UTF-8"?>
<svg id="Camada_2" data-name="Camada 2" xmlns="http://www.w3.org/2000/svg" viewBox="0 0 120.35 120.36">
  <defs>
    <style>
      .cls-1 {
        fill: #f87116;
      }
    </style>
  </defs>
  <g id="Camada_1-2" data-name="Camada 1">
    <path class="cls-1" d="M106.22,0H30.26c-7.8,0-14.13,6.33-14.13,14.13v4.11H7.15c-3.95,0-7.15,3.2-7.15,7.15s3.2,7.15,7.15,7.15h8.99v20.5H7.15c-3.95,0-7.15,3.2-7.15,7.15s3.2,7.15,7.15,7.15h8.99v20.5H7.15c-3.95,0-7.15,3.2-7.15,7.15s3.2,7.15,7.15,7.15h8.99v4.11c0,7.8,6.33,14.13,14.13,14.13h75.95c7.8,0,14.13-6.33,14.13-14.13V14.13c0-7.8-6.33-14.13-14.13-14.13ZM83.37,75.54v10.43c0,2.35-1.9,4.24-4.24,4.24h-21.78c-2.35,0-4.24-1.9-4.24-4.24v-10.43c-8.36,0-15.14-6.78-15.14-15.14s6.78-15.13,15.14-15.13c0-8.36,6.77-15.13,15.13-15.13s15.13,6.77,15.13,15.13c8.36,0,15.14,6.78,15.14,15.13s-6.78,15.14-15.14,15.14Z"/>
  </g>
</svg>