<?xml version="1.0" encoding="UTF-8"?>
<svg id="Camada_2" data-name="Camada 2" xmlns="http://www.w3.org/2000/svg" viewBox="0 0 773.25 120.36">
  <defs>
    <style>
      .cls-1 {
        fill: #f87116;
      }
    </style>
  </defs>
  <g id="Camada_1-2" data-name="Camada 1">
    <g>
      <g>
        <path class="cls-1" d="M198.36,29.83c4.42,0,8.33,1.06,11.73,3.17,3.4,2.11,6,4.98,7.8,8.62h.29v-10.31c0-.23.19-.42.42-.42h13.46c.23,0,.42.19.42.42v81.77c0,.23-.19.42-.42.42h-13.76c-.23,0-.42-.19-.42-.42v-30.54h-.35c-1.64,3.52-4.19,6.31-7.65,8.38s-7.4,3.11-11.82,3.11c-7.82,0-14.03-2.89-18.65-8.68-4.61-5.79-6.92-13.6-6.92-23.45s2.33-17.66,6.98-23.43c4.65-5.77,10.94-8.65,18.88-8.65ZM203,82.07c3.44-.09,6.79-1.39,9.22-3.83,3.78-3.79,5.67-9.21,5.67-16.28s-1.89-12.49-5.67-16.28c-2.43-2.44-5.78-3.74-9.22-3.83-4.88-.13-8.71,1.67-11.5,5.39s-4.05,8.5-4.05,14.72,1.35,11.12,4.05,14.72,6.62,5.51,11.5,5.39Z"/>
        <path class="cls-1" d="M299.51,31.31v61.31c0,.23-.19.42-.42.42h-13.23c-.23,0-.42-.19-.42-.42v-10.37h-.29c-3.44,7.94-9.77,11.9-19,11.9-6.76,0-12.13-2.06-16.1-6.19-3.97-4.12-5.95-9.76-5.95-16.92V31.31c0-.23.19-.42.42-.42h13.76c.23,0,.42.19.42.42v36.81c0,4.46,1.06,7.86,3.2,10.2,2.13,2.35,5.25,3.52,9.35,3.52s7.51-1.37,9.97-4.1,3.69-6.37,3.69-10.91V31.31c0-.23.19-.42.42-.42h13.76c.23,0,.42.19.42.42Z"/>
        <path class="cls-1" d="M324.81,20.42c-1.58,1.54-3.51,2.32-5.78,2.32s-4.08-.73-5.62-2.2c-1.64-1.56-2.55-3.81-2.46-6.08.08-2.07.86-3.84,2.34-5.3,1.56-1.54,3.48-2.32,5.75-2.32s4.19.77,5.78,2.32c1.58,1.55,2.37,3.43,2.37,5.66s-.79,4.06-2.37,5.6ZM311.76,92.62V31.31c0-.23.19-.42.42-.42h13.76c.23,0,.42.19.42.42v61.31c0,.23-.19.42-.42.42h-13.76c-.23,0-.42-.19-.42-.42Z"/>
        <path class="cls-1" d="M413.42,92.62V31.31c0-.23.19-.42.42-.42h13.17c.23,0,.42.19.42.42v10.43h.29c1.06-3.79,2.88-6.72,5.48-8.8,2.6-2.07,5.74-3.11,9.41-3.11,1.21,0,2.62.17,4.23.51.2.04.34.22.34.42v12.26c0,.29-.28.48-.55.4-1.38-.42-3.17-.63-5.37-.63-4.14,0-7.39,1.25-9.73,3.75s-3.52,5.94-3.52,10.32v35.76c0,.23-.19.42-.42.42h-13.76c-.23,0-.42-.19-.42-.42Z"/>
        <path class="cls-1" d="M501.78,85.63c-5.43,5.77-12.74,8.65-21.93,8.65s-16.5-2.88-21.93-8.65c-5.43-5.77-8.15-13.65-8.15-23.66s2.74-17.85,8.21-23.66c5.47-5.8,12.76-8.71,21.87-8.71s16.45,2.9,21.9,8.71,8.18,13.69,8.18,23.66-2.72,17.89-8.15,23.66ZM468.71,77.27c2.74,3.64,6.45,5.45,11.14,5.45s8.4-1.82,11.14-5.45c2.74-3.64,4.1-8.74,4.1-15.3s-1.37-11.62-4.1-15.27c-2.74-3.65-6.45-5.48-11.14-5.48s-8.36,1.83-11.11,5.48c-2.76,3.65-4.13,8.75-4.13,15.27s1.37,11.67,4.1,15.3Z"/>
        <path class="cls-1" d="M525.44,93.69c-2.38,0-4.39-.81-6.01-2.43-1.62-1.62-2.43-3.63-2.43-6.01s.81-4.34,2.43-5.98c1.62-1.64,3.63-2.46,6.01-2.46s4.33.82,5.95,2.46c1.62,1.64,2.43,3.64,2.43,5.98s-.81,4.39-2.43,6.01c-1.62,1.62-3.61,2.43-5.95,2.43Z"/>
        <path class="cls-1" d="M547.67,92.62v-50.05c0-.23-.19-.42-.42-.42h-7.66c-.23,0-.42-.19-.42-.42v-10.24c0-.23.19-.42.42-.42h7.66c.23,0,.42-.19.42-.42v-5.09c0-6.1,1.53-10.58,4.6-13.46,3.07-2.87,7.95-4.31,14.63-4.31,2.86,0,5.36.19,7.51.58.2.04.34.21.34.42v9.37c0,.25-.23.45-.48.41-1.46-.19-2.85-.29-4.15-.29-5.39,0-8.09,2.56-8.09,7.68v4.68c0,.23.19.42.42.42h11.59c.23,0,.42.19.42.42v10.24c0,.23-.19.42-.42.42h-11.35c-.23,0-.42.19-.42.42v50.05c0,.23-.19.42-.42.42h-13.76c-.23,0-.42-.19-.42-.42Z"/>
        <path class="cls-1" d="M631.35,85.63c-5.43,5.77-12.74,8.65-21.93,8.65s-16.5-2.88-21.93-8.65c-5.43-5.77-8.15-13.65-8.15-23.66s2.74-17.85,8.21-23.66c5.47-5.8,12.76-8.71,21.87-8.71s16.45,2.9,21.9,8.71,8.18,13.69,8.18,23.66-2.72,17.89-8.15,23.66ZM598.28,77.27c2.74,3.64,6.45,5.45,11.14,5.45s8.4-1.82,11.14-5.45c2.74-3.64,4.1-8.74,4.1-15.3s-1.37-11.62-4.1-15.27c-2.74-3.65-6.45-5.48-11.14-5.48s-8.36,1.83-11.11,5.48-4.13,8.75-4.13,15.27,1.37,11.67,4.1,15.3Z"/>
        <path class="cls-1" d="M698.31,85.63c-5.43,5.77-12.74,8.65-21.93,8.65s-16.5-2.88-21.93-8.65c-5.43-5.77-8.15-13.65-8.15-23.66s2.74-17.85,8.21-23.66c5.47-5.8,12.76-8.71,21.87-8.71s16.45,2.9,21.9,8.71c5.45,5.8,8.18,13.69,8.18,23.66s-2.72,17.89-8.15,23.66ZM665.24,77.27c2.74,3.64,6.45,5.45,11.14,5.45s8.4-1.82,11.14-5.45c2.74-3.64,4.1-8.74,4.1-15.3s-1.37-11.62-4.1-15.27c-2.74-3.65-6.45-5.48-11.14-5.48s-8.36,1.83-11.11,5.48-4.13,8.75-4.13,15.27,1.37,11.67,4.1,15.3Z"/>
        <path class="cls-1" d="M739.06,94.04c-7.86,0-14.12-2.89-18.79-8.68-4.67-5.79-7.01-13.6-7.01-23.45s2.34-17.61,7.01-23.4c4.67-5.79,10.94-8.68,18.79-8.68,4.38,0,8.26,1.04,11.64,3.11,3.38,2.07,5.91,4.87,7.59,8.38h.35V8.85c0-.23.19-.42.42-.42h13.76c.23,0,.42.19.42.42v83.77c0,.23-.19.42-.42.42h-13.46c-.23,0-.42-.19-.42-.42v-10.19h-.23c-1.72,3.56-4.31,6.38-7.77,8.47s-7.42,3.14-11.87,3.14ZM743.46,41.85c-4.69,0-8.41,1.81-11.14,5.42-2.74,3.62-4.1,8.51-4.1,14.69s1.36,11.12,4.08,14.72c2.72,3.6,6.44,5.39,11.17,5.39s8.31-1.82,11.08-5.45c2.78-3.64,4.16-8.52,4.16-14.66s-1.39-10.97-4.16-14.63c-2.78-3.65-6.47-5.48-11.08-5.48Z"/>
        <path class="cls-1" d="M340.35,65.73v-.96c0-.2-.14-.37-.33-.41l-6.85-1.5c-.22-.05-.37-.26-.33-.49l1.98-10.78c.04-.24.27-.39.51-.34l7.16,1.6c.2.04.4-.06.48-.25,5.42-13.34,18.96-23.01,35.76-23.01,15.4,0,25.23,7.11,25.23,18.13,0,12.8-13.39,20.5-35.42,20.5-4.45,0-8.47-.33-13.1-.99-.27-.04-.51.18-.49.45.64,9.49,6.17,14.52,14.9,14.52s16.84-4.03,23.86-10.95c.17-.17.44-.16.6,0l7.27,7.71c.15.16.16.4.02.57-7.69,9.18-18.51,14.63-32.81,14.63-17.77,0-28.43-10.07-28.43-28.43ZM368.54,56.25c13.03,0,20.85-2.96,20.85-8.41,0-4.38-3.67-6.28-10.78-6.28-10.09,0-17.92,5.23-21.46,13.35-.11.26.06.56.34.6,3.72.53,7.44.75,11.06.75Z"/>
      </g>
      <path class="cls-1" d="M106.22,0H30.26c-7.8,0-14.13,6.33-14.13,14.13v4.11H7.15c-3.95,0-7.15,3.2-7.15,7.15s3.2,7.15,7.15,7.15h8.99v20.5H7.15c-3.95,0-7.15,3.2-7.15,7.15s3.2,7.15,7.15,7.15h8.99v20.5H7.15c-3.95,0-7.15,3.2-7.15,7.15s3.2,7.15,7.15,7.15h8.99v4.11c0,7.8,6.33,14.13,14.13,14.13h75.95c7.8,0,14.13-6.33,14.13-14.13V14.13c0-7.8-6.33-14.13-14.13-14.13ZM83.37,75.54v10.43c0,2.35-1.9,4.24-4.24,4.24h-21.78c-2.35,0-4.24-1.9-4.24-4.24v-10.43c-8.36,0-15.14-6.78-15.14-15.14s6.78-15.13,15.14-15.13c0-8.36,6.77-15.13,15.13-15.13s15.13,6.77,15.13,15.13c8.36,0,15.14,6.78,15.14,15.13s-6.78,15.14-15.14,15.14Z"/>
    </g>
  </g>
</svg>