<?xml version="1.0" encoding="UTF-8"?>
<svg xmlns="http://www.w3.org/2000/svg" viewBox="0 0 1200 630" width="1200" height="630">
  <rect width="1200" height="630" fill="#F87116"/>
  <g transform="translate(600, 315) scale(4.2) translate(-56.955, -56.955)">
    <path fill="#ffffff" d="M80.46,22.87h-43.34c-4.46,0-8.06,3.61-8.06,8.06v2.34h-5.13c-2.25,0-4.07,1.83-4.07,4.08s1.82,4.08,4.07,4.08h5.13v11.7h-5.13c-2.25,0-4.07,1.83-4.07,4.08s1.82,4.08,4.07,4.08h5.13v11.7h-5.13c-2.25,0-4.07,1.83-4.07,4.08s1.82,4.08,4.07,4.08h5.13v2.34c0,4.45,3.61,8.06,8.06,8.06h43.34c4.45,0,8.06-3.61,8.06-8.06V30.93c0-4.45-3.61-8.06-8.06-8.06ZM67.43,65.97v5.95c0,1.34-1.09,2.42-2.42,2.42h-12.42c-1.34,0-2.42-1.08-2.42-2.42v-5.95c-4.77,0-8.63-3.87-8.63-8.64s3.87-8.63,8.63-8.63c0-4.77,3.87-8.63,8.64-8.63s8.63,3.86,8.63,8.63c4.77,0,8.63,3.87,8.63,8.63s-3.86,8.64-8.63,8.64Z"/>
  </g>
</svg>
